Coordinates
version=1
nRows=12
nColumns=23
inDegrees=yes

Units are S.I. units (second, meters, Newtons, ...)
If the header above contains a line with 'inDegrees', this indicates whether rotational values are in degrees (yes) or radians (no).

endheader
time	pelvis_tilt	pelvis_list	pelvis_rotation	pelvis_tx	pelvis_ty	pelvis_tz	hip_flexion_r	hip_adduction_r	hip_rotation_r	knee_angle_r	knee_angle_r_beta	ankle_angle_r	subtalar_angle_r	mtp_angle_r	hip_flexion_l	hip_adduction_l	hip_rotation_l	knee_angle_l	knee_angle_l_beta	ankle_angle_l	subtalar_angle_l	mtp_angle_l
     22.50000000	      6.56498460	      6.38248654	      6.59201202	      2.09087313	      0.82304997	      1.01444756	      8.67933408	    -15.24300242	    -10.69205271	     97.46022861	      1.70100188	     -4.03169812	    -12.50600396	      0.00000000	     12.30636986	     10.36086858	     -2.59600701	     48.05826581	      0.83877497	     23.15818480	     -1.18616933	      0.00000000
     22.50666667	      6.74803900	      6.52245245	      6.49058284	      2.08905929	      0.82286919	      1.01436770	     10.95533527	    -15.47880055	     -9.54713612	     98.48672841	      1.71891768	     -3.56475560	    -12.13577981	      0.00000000	     10.81717924	     10.18803348	     -2.90168729	     47.94115610	      0.83673102	     23.99841325	     -0.20896078	      0.00000000
     22.51333333	      6.93770189	      6.34087248	      6.87241426	      2.08746441	      0.82351565	      1.01354869	     12.88261148	    -15.37536580	     -9.03906330	     98.91773424	      1.72644015	     -3.36503463	    -12.05017775	      0.00000000	      9.18070334	      9.92216781	     -2.34452375	     47.60064238	      0.83078794	     24.53806044	      0.19209737	      0.00000000
     22.52000000	      6.87915763	      6.63146008	      6.44444515	      2.08584408	      0.82384902	      1.01367002	     15.49531510	    -15.68995865	     -7.58135223	     99.46071171	      1.73591690	     -2.71794997	    -11.53993858	      0.00000000	      7.67188508	      9.83602753	     -3.17343740	     46.93406040	      0.81915389	     25.21881424	      1.58124304	      0.00000000
     22.52666667	      6.89612267	      6.61731766	      6.50217468	      2.08452757	      0.82501240	      1.01303540	     17.60659088	    -15.69928057	     -6.81181856	     99.40004797	      1.73485811	     -2.35957092	    -11.46257717	      0.00000000	      5.96622287	      9.67319071	     -3.10025352	     46.08547506	      0.80434328	     25.58991169	      2.27695708	      0.00000000
     22.53333333	      6.83945954	      6.51636858	      6.61699586	      2.08337463	      0.82665844	      1.01227453	     19.64622043	    -15.64256987	     -6.24173902	     98.95835373	      1.72714909	     -2.01322238	    -11.42904671	      0.00000000	      4.25010266	      9.47385647	     -2.86664331	     45.03237377	      0.78596319	     25.72353294	      2.96551358	      0.00000000
     22.54000000	      6.76889355	      6.40167438	      6.80843795	      2.08248545	      0.82876527	      1.01140686	     21.51171283	    -15.48353842	     -5.76603802	     98.18696412	      1.71368581	     -1.67849045	    -11.50330993	      0.00000000	      2.41555600	      9.25039899	     -2.55597860	     43.71430112	      0.76295848	     25.67712655	      3.65393612	      0.00000000
     22.54666667	      6.71329497	      6.19051401	      7.04755366	      2.08177015	      0.83136108	      1.01047042	     23.16724000	    -15.28501217	     -5.54289138	     97.04484154	      1.69375201	     -1.38127718	    -11.74368845	      0.00000000	      0.51125056	      8.93407380	     -2.11967947	     42.23821699	      0.73719596	     25.41001021	      4.23938554	      0.00000000
     22.55333333	      6.84764211	      5.82415219	      7.35518990	      2.08138935	      0.83472803	      1.00947373	     24.33443428	    -14.86471117	     -5.57537284	     95.45270173	      1.66596393	     -1.16042381	    -12.13309971	      0.00000000	     -1.67817197	      8.41574936	     -1.54471687	     40.55772313	      0.70786581	     24.95807271	      4.69616767	      0.00000000
     22.56000000	      6.41255423	      5.42956408	      7.77229807	      2.08111598	      0.83762990	      1.00836057	     26.04027335	    -14.53802562	     -5.70014822	     93.72525556	      1.63581430	     -0.83420135	    -12.45916086	      0.00000000	     -3.18388582	      7.90866264	     -0.96176038	     38.93818994	      0.67959962	     24.22742072	      5.32846595	      0.00000000
     22.56666667	      6.65486829	      4.98270444	      8.07578036	      2.08117768	      0.84181120	      1.00743698	     26.69567986	    -14.00080387	     -5.96616729	     91.47386391	      1.59652010	     -0.77085675	    -13.15424866	      0.00000000	     -5.57061255	      7.23940938	     -0.36883953	     36.95301147	      0.64495172	     23.29676281	      5.58777399	      0.00000000
     22.57333333	      5.67048662	      4.51325435	      8.52175000	      2.08127479	      0.84435483	      1.00632201	     28.75194818	    -13.68485858	     -6.18814516	     89.33406882	      1.55917364	     -0.31083814	    -13.16487289	      0.00000000	     -6.31909951	      6.63834857	      0.03089253	     35.53956664	      0.62028245	     22.59259261	      6.17108115	      0.00000000
